<mxfile host="Electron" modified="2024-08-30T08:43:44.133Z" agent="Mozilla/5.0 (Macintosh; Intel Mac OS X 10_15_7) AppleWebKit/537.36 (KHTML, like Gecko) draw.io/21.4.0 Chrome/112.0.5615.204 Electron/24.5.1 Safari/537.36" etag="3ULOHdqLusdNSc2XioQ-" version="21.4.0" type="device">
  <diagram name="Page-1" id="cPXdqtFhVd-CmYwQC1Np">
    <mxGraphModel dx="1242" dy="828" grid="1" gridSize="10" guides="1" tooltips="1" connect="1" arrows="1" fold="1" page="1" pageScale="1" pageWidth="827" pageHeight="1169" math="0" shadow="0">
      <root>
        <mxCell id="0" />
        <mxCell id="1" parent="0" />
        <mxCell id="q5GMwRHJN3oYKQXexOhs-16" value="" style="rounded=0;whiteSpace=wrap;html=1;fillColor=#fff2cc;strokeColor=#d6b656;" vertex="1" parent="1">
          <mxGeometry x="340" y="380" width="430" height="280" as="geometry" />
        </mxCell>
        <mxCell id="q5GMwRHJN3oYKQXexOhs-8" value="" style="rounded=0;whiteSpace=wrap;html=1;" vertex="1" parent="1">
          <mxGeometry x="580" y="400" width="160" height="210" as="geometry" />
        </mxCell>
        <mxCell id="q5GMwRHJN3oYKQXexOhs-2" value="&lt;div style=&quot;background-color:#ffffff;color:#080808&quot;&gt;&lt;pre style=&quot;font-family:&#39;JetBrains Mono&#39;,monospace;font-size:26.3pt;&quot;&gt;&lt;span style=&quot;color:#000000;&quot;&gt;person1 &lt;/span&gt;= {&lt;br&gt;    &lt;span style=&quot;color:#067d17;&quot;&gt;&quot;name&quot;&lt;/span&gt;: &lt;span style=&quot;color:#067d17;&quot;&gt;&quot;person1&quot;&lt;/span&gt;, &lt;br&gt;    &lt;span style=&quot;color:#067d17;&quot;&gt;&quot;age&quot;&lt;/span&gt;: &lt;span style=&quot;color:#1750eb;&quot;&gt;40&lt;/span&gt;, &lt;br&gt;    &lt;span style=&quot;color:#067d17;&quot;&gt;&quot;address&quot;&lt;/span&gt;: &lt;span style=&quot;color:#067d17;&quot;&gt;&quot;pune&quot;&lt;br&gt;&lt;/span&gt;}&lt;/pre&gt;&lt;/div&gt;" style="text;whiteSpace=wrap;html=1;" vertex="1" parent="1">
          <mxGeometry x="20" y="30" width="520" height="300" as="geometry" />
        </mxCell>
        <mxCell id="q5GMwRHJN3oYKQXexOhs-3" value="" style="rounded=0;whiteSpace=wrap;html=1;" vertex="1" parent="1">
          <mxGeometry x="370" y="400" width="160" height="210" as="geometry" />
        </mxCell>
        <mxCell id="q5GMwRHJN3oYKQXexOhs-13" style="edgeStyle=orthogonalEdgeStyle;rounded=0;orthogonalLoop=1;jettySize=auto;html=1;entryX=0;entryY=0.5;entryDx=0;entryDy=0;" edge="1" parent="1" source="q5GMwRHJN3oYKQXexOhs-4" target="q5GMwRHJN3oYKQXexOhs-9">
          <mxGeometry relative="1" as="geometry" />
        </mxCell>
        <mxCell id="q5GMwRHJN3oYKQXexOhs-4" value="name" style="rounded=0;whiteSpace=wrap;html=1;fontStyle=1;fontSize=16;fillColor=#e1d5e7;strokeColor=#9673a6;" vertex="1" parent="1">
          <mxGeometry x="390" y="420" width="120" height="50" as="geometry" />
        </mxCell>
        <mxCell id="q5GMwRHJN3oYKQXexOhs-14" style="edgeStyle=orthogonalEdgeStyle;rounded=0;orthogonalLoop=1;jettySize=auto;html=1;" edge="1" parent="1" source="q5GMwRHJN3oYKQXexOhs-5" target="q5GMwRHJN3oYKQXexOhs-10">
          <mxGeometry relative="1" as="geometry" />
        </mxCell>
        <mxCell id="q5GMwRHJN3oYKQXexOhs-5" value="age" style="rounded=0;whiteSpace=wrap;html=1;fontStyle=1;fontSize=16;fillColor=#e1d5e7;strokeColor=#9673a6;" vertex="1" parent="1">
          <mxGeometry x="390" y="480" width="120" height="50" as="geometry" />
        </mxCell>
        <mxCell id="q5GMwRHJN3oYKQXexOhs-15" style="edgeStyle=orthogonalEdgeStyle;rounded=0;orthogonalLoop=1;jettySize=auto;html=1;" edge="1" parent="1" source="q5GMwRHJN3oYKQXexOhs-6" target="q5GMwRHJN3oYKQXexOhs-11">
          <mxGeometry relative="1" as="geometry" />
        </mxCell>
        <mxCell id="q5GMwRHJN3oYKQXexOhs-6" value="address" style="rounded=0;whiteSpace=wrap;html=1;fontStyle=1;fontSize=16;fillColor=#e1d5e7;strokeColor=#9673a6;" vertex="1" parent="1">
          <mxGeometry x="390" y="540" width="120" height="50" as="geometry" />
        </mxCell>
        <mxCell id="q5GMwRHJN3oYKQXexOhs-7" value="keys" style="text;html=1;strokeColor=none;fillColor=none;align=center;verticalAlign=middle;whiteSpace=wrap;rounded=0;fontStyle=1;fontSize=19;" vertex="1" parent="1">
          <mxGeometry x="420" y="620" width="60" height="30" as="geometry" />
        </mxCell>
        <mxCell id="q5GMwRHJN3oYKQXexOhs-9" value="person1" style="rounded=0;whiteSpace=wrap;html=1;fontStyle=1;fontSize=16;fillColor=#d5e8d4;strokeColor=#82b366;" vertex="1" parent="1">
          <mxGeometry x="600" y="420" width="120" height="50" as="geometry" />
        </mxCell>
        <mxCell id="q5GMwRHJN3oYKQXexOhs-10" value="40" style="rounded=0;whiteSpace=wrap;html=1;fontStyle=1;fontSize=16;fillColor=#d5e8d4;strokeColor=#82b366;" vertex="1" parent="1">
          <mxGeometry x="600" y="480" width="120" height="50" as="geometry" />
        </mxCell>
        <mxCell id="q5GMwRHJN3oYKQXexOhs-11" value="pune" style="rounded=0;whiteSpace=wrap;html=1;fontStyle=1;fontSize=16;fillColor=#d5e8d4;strokeColor=#82b366;" vertex="1" parent="1">
          <mxGeometry x="600" y="540" width="120" height="50" as="geometry" />
        </mxCell>
        <mxCell id="q5GMwRHJN3oYKQXexOhs-12" value="values" style="text;html=1;strokeColor=none;fillColor=none;align=center;verticalAlign=middle;whiteSpace=wrap;rounded=0;fontStyle=1;fontSize=19;" vertex="1" parent="1">
          <mxGeometry x="630" y="620" width="60" height="30" as="geometry" />
        </mxCell>
        <mxCell id="q5GMwRHJN3oYKQXexOhs-22" style="edgeStyle=orthogonalEdgeStyle;rounded=0;orthogonalLoop=1;jettySize=auto;html=1;entryX=-0.009;entryY=0.446;entryDx=0;entryDy=0;entryPerimeter=0;" edge="1" parent="1" source="q5GMwRHJN3oYKQXexOhs-17" target="q5GMwRHJN3oYKQXexOhs-16">
          <mxGeometry relative="1" as="geometry" />
        </mxCell>
        <mxCell id="q5GMwRHJN3oYKQXexOhs-17" value="0x11000" style="rounded=0;whiteSpace=wrap;html=1;fillColor=#dae8fc;strokeColor=#6c8ebf;fontStyle=1;fontSize=18;" vertex="1" parent="1">
          <mxGeometry x="80" y="477" width="160" height="55" as="geometry" />
        </mxCell>
        <mxCell id="q5GMwRHJN3oYKQXexOhs-18" value="0x11000" style="text;html=1;strokeColor=none;fillColor=none;align=left;verticalAlign=middle;whiteSpace=wrap;rounded=0;fontStyle=1;fontSize=19;" vertex="1" parent="1">
          <mxGeometry x="340" y="350" width="420" height="30" as="geometry" />
        </mxCell>
        <mxCell id="q5GMwRHJN3oYKQXexOhs-19" value="dictionary" style="text;html=1;strokeColor=none;fillColor=none;align=left;verticalAlign=middle;whiteSpace=wrap;rounded=0;fontStyle=1;fontSize=19;" vertex="1" parent="1">
          <mxGeometry x="340" y="670" width="420" height="30" as="geometry" />
        </mxCell>
        <mxCell id="q5GMwRHJN3oYKQXexOhs-20" value="0x10000" style="text;html=1;strokeColor=none;fillColor=none;align=left;verticalAlign=middle;whiteSpace=wrap;rounded=0;fontStyle=1;fontSize=19;" vertex="1" parent="1">
          <mxGeometry x="80" y="447" width="130" height="30" as="geometry" />
        </mxCell>
        <mxCell id="q5GMwRHJN3oYKQXexOhs-23" value="person1&lt;br&gt;reference" style="text;html=1;strokeColor=none;fillColor=none;align=left;verticalAlign=middle;whiteSpace=wrap;rounded=0;fontStyle=1;fontSize=19;" vertex="1" parent="1">
          <mxGeometry x="80" y="532" width="130" height="50" as="geometry" />
        </mxCell>
      </root>
    </mxGraphModel>
  </diagram>
</mxfile>
